<?xml version="1.0" encoding="utf-8" standalone="no"?>
<!DOCTYPE svg PUBLIC "-//W3C//DTD SVG 1.1//EN" "http://www.w3.org/Graphics/SVG/1.1/DTD/svg11.dtd">

<svg width="360mm" height="270mm" viewBox="0 0 360 270" xmlns="http://www.w3.org/2000/svg" xmlns:xlink="http://www.w3.org/1999/xlink" version="1.1" style="stroke:black; fill:none; stroke-width:0.5pt; stroke-linejoin:round; text-anchor:middle" font-family="Helvetica, Arial, FreeSans, Sans, sans, sans-serif">

<g>

<circle cx="15.0" cy="15.0" r="15.0" fill="black" stroke="none" />

<circle cx="15.0" cy="45.0" r="15.0" fill="black" stroke="none" />

<circle cx="15.0" cy="75.0" r="15.0" fill="black" stroke="none" />

<circle cx="15.0" cy="105.0" r="15.0" fill="black" stroke="none" />

<circle cx="15.0" cy="135.0" r="15.0" fill="black" stroke="none" />

<circle cx="15.0" cy="165.0" r="15.0" fill="black" stroke="none" />

<circle cx="15.0" cy="195.0" r="15.0" fill="black" stroke="none" />

<circle cx="15.0" cy="225.0" r="15.0" fill="black" stroke="none" />

<circle cx="15.0" cy="255.0" r="15.0" fill="black" stroke="none" />

<circle cx="45.0" cy="15.0" r="15.0" fill="black" stroke="none" />

<circle cx="45.0" cy="45.0" r="15.0" fill="black" stroke="none" />

<circle cx="45.0" cy="75.0" r="15.0" fill="black" stroke="none" />

<circle cx="45.0" cy="105.0" r="15.0" fill="black" stroke="none" />

<circle cx="45.0" cy="135.0" r="15.0" fill="black" stroke="none" />

<circle cx="45.0" cy="165.0" r="15.0" fill="black" stroke="none" />

<circle cx="45.0" cy="195.0" r="15.0" fill="black" stroke="none" />

<circle cx="45.0" cy="225.0" r="15.0" fill="black" stroke="none" />

<circle cx="45.0" cy="255.0" r="15.0" fill="black" stroke="none" />

<circle cx="75.0" cy="15.0" r="15.0" fill="black" stroke="none" />

<circle cx="75.0" cy="45.0" r="15.0" fill="black" stroke="none" />

<circle cx="75.0" cy="75.0" r="15.0" fill="black" stroke="none" />

<circle cx="75.0" cy="105.0" r="15.0" fill="black" stroke="none" />

<circle cx="75.0" cy="135.0" r="15.0" fill="black" stroke="none" />

<circle cx="75.0" cy="165.0" r="15.0" fill="black" stroke="none" />

<circle cx="75.0" cy="195.0" r="15.0" fill="black" stroke="none" />

<circle cx="75.0" cy="225.0" r="15.0" fill="black" stroke="none" />

<circle cx="75.0" cy="255.0" r="15.0" fill="black" stroke="none" />

<circle cx="105.0" cy="15.0" r="15.0" fill="black" stroke="none" />

<circle cx="105.0" cy="45.0" r="15.0" fill="black" stroke="none" />

<circle cx="105.0" cy="75.0" r="15.0" fill="black" stroke="none" />

<circle cx="105.0" cy="105.0" r="15.0" fill="black" stroke="none" />

<circle cx="105.0" cy="135.0" r="15.0" fill="black" stroke="none" />

<circle cx="105.0" cy="165.0" r="15.0" fill="black" stroke="none" />

<circle cx="105.0" cy="195.0" r="15.0" fill="black" stroke="none" />

<circle cx="105.0" cy="225.0" r="15.0" fill="black" stroke="none" />

<circle cx="105.0" cy="255.0" r="15.0" fill="black" stroke="none" />

<circle cx="135.0" cy="15.0" r="15.0" fill="black" stroke="none" />

<circle cx="135.0" cy="45.0" r="15.0" fill="black" stroke="none" />

<circle cx="135.0" cy="75.0" r="15.0" fill="black" stroke="none" />

<circle cx="135.0" cy="105.0" r="15.0" fill="black" stroke="none" />

<circle cx="135.0" cy="135.0" r="15.0" fill="black" stroke="none" />

<circle cx="135.0" cy="165.0" r="15.0" fill="black" stroke="none" />

<circle cx="135.0" cy="195.0" r="15.0" fill="black" stroke="none" />

<circle cx="135.0" cy="225.0" r="15.0" fill="black" stroke="none" />

<circle cx="135.0" cy="255.0" r="15.0" fill="black" stroke="none" />

<circle cx="165.0" cy="15.0" r="15.0" fill="black" stroke="none" />

<circle cx="165.0" cy="45.0" r="15.0" fill="black" stroke="none" />

<circle cx="165.0" cy="75.0" r="15.0" fill="black" stroke="none" />

<circle cx="165.0" cy="105.0" r="15.0" fill="black" stroke="none" />

<circle cx="165.0" cy="135.0" r="15.0" fill="black" stroke="none" />

<circle cx="165.0" cy="165.0" r="15.0" fill="black" stroke="none" />

<circle cx="165.0" cy="195.0" r="15.0" fill="black" stroke="none" />

<circle cx="165.0" cy="225.0" r="15.0" fill="black" stroke="none" />

<circle cx="165.0" cy="255.0" r="15.0" fill="black" stroke="none" />

<circle cx="195.0" cy="15.0" r="15.0" fill="black" stroke="none" />

<circle cx="195.0" cy="45.0" r="15.0" fill="black" stroke="none" />

<circle cx="195.0" cy="75.0" r="15.0" fill="black" stroke="none" />

<circle cx="195.0" cy="105.0" r="15.0" fill="black" stroke="none" />

<circle cx="195.0" cy="135.0" r="15.0" fill="black" stroke="none" />

<circle cx="195.0" cy="165.0" r="15.0" fill="black" stroke="none" />

<circle cx="195.0" cy="195.0" r="15.0" fill="black" stroke="none" />

<circle cx="195.0" cy="225.0" r="15.0" fill="black" stroke="none" />

<circle cx="195.0" cy="255.0" r="15.0" fill="black" stroke="none" />

<circle cx="225.0" cy="15.0" r="15.0" fill="black" stroke="none" />

<circle cx="225.0" cy="45.0" r="15.0" fill="black" stroke="none" />

<circle cx="225.0" cy="75.0" r="15.0" fill="black" stroke="none" />

<circle cx="225.0" cy="105.0" r="15.0" fill="black" stroke="none" />

<circle cx="225.0" cy="135.0" r="15.0" fill="black" stroke="none" />

<circle cx="225.0" cy="165.0" r="15.0" fill="black" stroke="none" />

<circle cx="225.0" cy="195.0" r="15.0" fill="black" stroke="none" />

<circle cx="225.0" cy="225.0" r="15.0" fill="black" stroke="none" />

<circle cx="225.0" cy="255.0" r="15.0" fill="black" stroke="none" />

<circle cx="255.0" cy="15.0" r="15.0" fill="black" stroke="none" />

<circle cx="255.0" cy="45.0" r="15.0" fill="black" stroke="none" />

<circle cx="255.0" cy="75.0" r="15.0" fill="black" stroke="none" />

<circle cx="255.0" cy="105.0" r="15.0" fill="black" stroke="none" />

<circle cx="255.0" cy="135.0" r="15.0" fill="black" stroke="none" />

<circle cx="255.0" cy="165.0" r="15.0" fill="black" stroke="none" />

<circle cx="255.0" cy="195.0" r="15.0" fill="black" stroke="none" />

<circle cx="255.0" cy="225.0" r="15.0" fill="black" stroke="none" />

<circle cx="255.0" cy="255.0" r="15.0" fill="black" stroke="none" />

<circle cx="285.0" cy="15.0" r="15.0" fill="black" stroke="none" />

<circle cx="285.0" cy="45.0" r="15.0" fill="black" stroke="none" />

<circle cx="285.0" cy="75.0" r="15.0" fill="black" stroke="none" />

<circle cx="285.0" cy="105.0" r="15.0" fill="black" stroke="none" />

<circle cx="285.0" cy="135.0" r="15.0" fill="black" stroke="none" />

<circle cx="285.0" cy="165.0" r="15.0" fill="black" stroke="none" />

<circle cx="285.0" cy="195.0" r="15.0" fill="black" stroke="none" />

<circle cx="285.0" cy="225.0" r="15.0" fill="black" stroke="none" />

<circle cx="285.0" cy="255.0" r="15.0" fill="black" stroke="none" />

<circle cx="315.0" cy="15.0" r="15.0" fill="black" stroke="none" />

<circle cx="315.0" cy="45.0" r="15.0" fill="black" stroke="none" />

<circle cx="315.0" cy="75.0" r="15.0" fill="black" stroke="none" />

<circle cx="315.0" cy="105.0" r="15.0" fill="black" stroke="none" />

<circle cx="315.0" cy="135.0" r="15.0" fill="black" stroke="none" />

<circle cx="315.0" cy="165.0" r="15.0" fill="black" stroke="none" />

<circle cx="315.0" cy="195.0" r="15.0" fill="black" stroke="none" />

<circle cx="315.0" cy="225.0" r="15.0" fill="black" stroke="none" />

<circle cx="315.0" cy="255.0" r="15.0" fill="black" stroke="none" />

<circle cx="345.0" cy="15.0" r="15.0" fill="black" stroke="none" />

<circle cx="345.0" cy="45.0" r="15.0" fill="black" stroke="none" />

<circle cx="345.0" cy="75.0" r="15.0" fill="black" stroke="none" />

<circle cx="345.0" cy="105.0" r="15.0" fill="black" stroke="none" />

<circle cx="345.0" cy="135.0" r="15.0" fill="black" stroke="none" />

<circle cx="345.0" cy="165.0" r="15.0" fill="black" stroke="none" />

<circle cx="345.0" cy="195.0" r="15.0" fill="black" stroke="none" />

<circle cx="345.0" cy="225.0" r="15.0" fill="black" stroke="none" />

<circle cx="345.0" cy="255.0" r="15.0" fill="black" stroke="none" />

</g>

</svg>

