<?xml version="1.0" encoding="utf-8" standalone="no"?>
<!DOCTYPE svg PUBLIC "-//W3C//DTD SVG 1.1//EN" "http://www.w3.org/Graphics/SVG/1.1/DTD/svg11.dtd">

<svg width="210mm" height="297mm" viewBox="0 0 210 297" xmlns="http://www.w3.org/2000/svg" xmlns:xlink="http://www.w3.org/1999/xlink" version="1.1" style="stroke:black; fill:none; stroke-width:0.5pt; stroke-linejoin:round; text-anchor:middle" font-family="Helvetica, Arial, FreeSans, Sans, sans, sans-serif">

<g>

<rect x="35.0" y="48.5" width="20.0" height="20.0" fill="black" stroke="none" />

<rect x="35.0" y="88.5" width="20.0" height="20.0" fill="black" stroke="none" />

<rect x="35.0" y="128.5" width="20.0" height="20.0" fill="black" stroke="none" />

<rect x="35.0" y="168.5" width="20.0" height="20.0" fill="black" stroke="none" />

<rect x="35.0" y="208.5" width="20.0" height="20.0" fill="black" stroke="none" />

<rect x="55.0" y="68.5" width="20.0" height="20.0" fill="black" stroke="none" />

<rect x="55.0" y="108.5" width="20.0" height="20.0" fill="black" stroke="none" />

<rect x="55.0" y="148.5" width="20.0" height="20.0" fill="black" stroke="none" />

<rect x="55.0" y="188.5" width="20.0" height="20.0" fill="black" stroke="none" />

<rect x="55.0" y="228.5" width="20.0" height="20.0" fill="black" stroke="none" />

<rect x="75.0" y="48.5" width="20.0" height="20.0" fill="black" stroke="none" />

<rect x="75.0" y="88.5" width="20.0" height="20.0" fill="black" stroke="none" />

<rect x="75.0" y="128.5" width="20.0" height="20.0" fill="black" stroke="none" />

<rect x="75.0" y="168.5" width="20.0" height="20.0" fill="black" stroke="none" />

<rect x="75.0" y="208.5" width="20.0" height="20.0" fill="black" stroke="none" />

<rect x="95.0" y="68.5" width="20.0" height="20.0" fill="black" stroke="none" />

<rect x="95.0" y="108.5" width="20.0" height="20.0" fill="black" stroke="none" />

<rect x="95.0" y="148.5" width="20.0" height="20.0" fill="black" stroke="none" />

<rect x="95.0" y="188.5" width="20.0" height="20.0" fill="black" stroke="none" />

<rect x="95.0" y="228.5" width="20.0" height="20.0" fill="black" stroke="none" />

<rect x="115.0" y="48.5" width="20.0" height="20.0" fill="black" stroke="none" />

<rect x="115.0" y="88.5" width="20.0" height="20.0" fill="black" stroke="none" />

<rect x="115.0" y="128.5" width="20.0" height="20.0" fill="black" stroke="none" />

<rect x="115.0" y="168.5" width="20.0" height="20.0" fill="black" stroke="none" />

<rect x="115.0" y="208.5" width="20.0" height="20.0" fill="black" stroke="none" />

<rect x="135.0" y="68.5" width="20.0" height="20.0" fill="black" stroke="none" />

<rect x="135.0" y="108.5" width="20.0" height="20.0" fill="black" stroke="none" />

<rect x="135.0" y="148.5" width="20.0" height="20.0" fill="black" stroke="none" />

<rect x="135.0" y="188.5" width="20.0" height="20.0" fill="black" stroke="none" />

<rect x="135.0" y="228.5" width="20.0" height="20.0" fill="black" stroke="none" />

<rect x="155.0" y="48.5" width="20.0" height="20.0" fill="black" stroke="none" />

<rect x="155.0" y="88.5" width="20.0" height="20.0" fill="black" stroke="none" />

<rect x="155.0" y="128.5" width="20.0" height="20.0" fill="black" stroke="none" />

<rect x="155.0" y="168.5" width="20.0" height="20.0" fill="black" stroke="none" />

<rect x="155.0" y="208.5" width="20.0" height="20.0" fill="black" stroke="none" />

</g>

</svg>

