<?xml version="1.0" encoding="utf-8" standalone="no"?>
<!DOCTYPE svg PUBLIC "-//W3C//DTD SVG 1.1//EN" "http://www.w3.org/Graphics/SVG/1.1/DTD/svg11.dtd">

<svg width="120mm" height="90mm" viewBox="0 0 120 90" xmlns="http://www.w3.org/2000/svg" xmlns:xlink="http://www.w3.org/1999/xlink" version="1.1" style="stroke:black; fill:none; stroke-width:0.5pt; stroke-linejoin:round; text-anchor:middle" font-family="Helvetica, Arial, FreeSans, Sans, sans, sans-serif">

<g>

<circle cx="5.0" cy="5.0" r="1.0" fill="black" stroke="none" />

<circle cx="5.0" cy="15.0" r="1.0" fill="black" stroke="none" />

<circle cx="5.0" cy="25.0" r="1.0" fill="black" stroke="none" />

<circle cx="5.0" cy="35.0" r="1.0" fill="black" stroke="none" />

<circle cx="5.0" cy="45.0" r="1.0" fill="black" stroke="none" />

<circle cx="5.0" cy="55.0" r="1.0" fill="black" stroke="none" />

<circle cx="5.0" cy="65.0" r="1.0" fill="black" stroke="none" />

<circle cx="5.0" cy="75.0" r="1.0" fill="black" stroke="none" />

<circle cx="5.0" cy="85.0" r="1.0" fill="black" stroke="none" />

<circle cx="15.0" cy="5.0" r="1.0" fill="black" stroke="none" />

<circle cx="15.0" cy="15.0" r="1.0" fill="black" stroke="none" />

<circle cx="15.0" cy="25.0" r="1.0" fill="black" stroke="none" />

<circle cx="15.0" cy="35.0" r="1.0" fill="black" stroke="none" />

<circle cx="15.0" cy="45.0" r="1.0" fill="black" stroke="none" />

<circle cx="15.0" cy="55.0" r="1.0" fill="black" stroke="none" />

<circle cx="15.0" cy="65.0" r="1.0" fill="black" stroke="none" />

<circle cx="15.0" cy="75.0" r="1.0" fill="black" stroke="none" />

<circle cx="15.0" cy="85.0" r="1.0" fill="black" stroke="none" />

<circle cx="25.0" cy="5.0" r="1.0" fill="black" stroke="none" />

<circle cx="25.0" cy="15.0" r="1.0" fill="black" stroke="none" />

<circle cx="25.0" cy="25.0" r="1.0" fill="black" stroke="none" />

<circle cx="25.0" cy="35.0" r="1.0" fill="black" stroke="none" />

<circle cx="25.0" cy="45.0" r="1.0" fill="black" stroke="none" />

<circle cx="25.0" cy="55.0" r="1.0" fill="black" stroke="none" />

<circle cx="25.0" cy="65.0" r="1.0" fill="black" stroke="none" />

<circle cx="25.0" cy="75.0" r="1.0" fill="black" stroke="none" />

<circle cx="25.0" cy="85.0" r="1.0" fill="black" stroke="none" />

<circle cx="35.0" cy="5.0" r="1.0" fill="black" stroke="none" />

<circle cx="35.0" cy="15.0" r="1.0" fill="black" stroke="none" />

<circle cx="35.0" cy="25.0" r="1.0" fill="black" stroke="none" />

<circle cx="35.0" cy="35.0" r="1.0" fill="black" stroke="none" />

<circle cx="35.0" cy="45.0" r="1.0" fill="black" stroke="none" />

<circle cx="35.0" cy="55.0" r="1.0" fill="black" stroke="none" />

<circle cx="35.0" cy="65.0" r="1.0" fill="black" stroke="none" />

<circle cx="35.0" cy="75.0" r="1.0" fill="black" stroke="none" />

<circle cx="35.0" cy="85.0" r="1.0" fill="black" stroke="none" />

<circle cx="45.0" cy="5.0" r="1.0" fill="black" stroke="none" />

<circle cx="45.0" cy="15.0" r="1.0" fill="black" stroke="none" />

<circle cx="45.0" cy="25.0" r="1.0" fill="black" stroke="none" />

<circle cx="45.0" cy="35.0" r="1.0" fill="black" stroke="none" />

<circle cx="45.0" cy="45.0" r="1.0" fill="black" stroke="none" />

<circle cx="45.0" cy="55.0" r="1.0" fill="black" stroke="none" />

<circle cx="45.0" cy="65.0" r="1.0" fill="black" stroke="none" />

<circle cx="45.0" cy="75.0" r="1.0" fill="black" stroke="none" />

<circle cx="45.0" cy="85.0" r="1.0" fill="black" stroke="none" />

<circle cx="55.0" cy="5.0" r="1.0" fill="black" stroke="none" />

<circle cx="55.0" cy="15.0" r="1.0" fill="black" stroke="none" />

<circle cx="55.0" cy="25.0" r="1.0" fill="black" stroke="none" />

<circle cx="55.0" cy="35.0" r="1.0" fill="black" stroke="none" />

<circle cx="55.0" cy="45.0" r="1.0" fill="black" stroke="none" />

<circle cx="55.0" cy="55.0" r="1.0" fill="black" stroke="none" />

<circle cx="55.0" cy="65.0" r="1.0" fill="black" stroke="none" />

<circle cx="55.0" cy="75.0" r="1.0" fill="black" stroke="none" />

<circle cx="55.0" cy="85.0" r="1.0" fill="black" stroke="none" />

<circle cx="65.0" cy="5.0" r="1.0" fill="black" stroke="none" />

<circle cx="65.0" cy="15.0" r="1.0" fill="black" stroke="none" />

<circle cx="65.0" cy="25.0" r="1.0" fill="black" stroke="none" />

<circle cx="65.0" cy="35.0" r="1.0" fill="black" stroke="none" />

<circle cx="65.0" cy="45.0" r="1.0" fill="black" stroke="none" />

<circle cx="65.0" cy="55.0" r="1.0" fill="black" stroke="none" />

<circle cx="65.0" cy="65.0" r="1.0" fill="black" stroke="none" />

<circle cx="65.0" cy="75.0" r="1.0" fill="black" stroke="none" />

<circle cx="65.0" cy="85.0" r="1.0" fill="black" stroke="none" />

<circle cx="75.0" cy="5.0" r="1.0" fill="black" stroke="none" />

<circle cx="75.0" cy="15.0" r="1.0" fill="black" stroke="none" />

<circle cx="75.0" cy="25.0" r="1.0" fill="black" stroke="none" />

<circle cx="75.0" cy="35.0" r="1.0" fill="black" stroke="none" />

<circle cx="75.0" cy="45.0" r="1.0" fill="black" stroke="none" />

<circle cx="75.0" cy="55.0" r="1.0" fill="black" stroke="none" />

<circle cx="75.0" cy="65.0" r="1.0" fill="black" stroke="none" />

<circle cx="75.0" cy="75.0" r="1.0" fill="black" stroke="none" />

<circle cx="75.0" cy="85.0" r="1.0" fill="black" stroke="none" />

<circle cx="85.0" cy="5.0" r="1.0" fill="black" stroke="none" />

<circle cx="85.0" cy="15.0" r="1.0" fill="black" stroke="none" />

<circle cx="85.0" cy="25.0" r="1.0" fill="black" stroke="none" />

<circle cx="85.0" cy="35.0" r="1.0" fill="black" stroke="none" />

<circle cx="85.0" cy="45.0" r="1.0" fill="black" stroke="none" />

<circle cx="85.0" cy="55.0" r="1.0" fill="black" stroke="none" />

<circle cx="85.0" cy="65.0" r="1.0" fill="black" stroke="none" />

<circle cx="85.0" cy="75.0" r="1.0" fill="black" stroke="none" />

<circle cx="85.0" cy="85.0" r="1.0" fill="black" stroke="none" />

<circle cx="95.0" cy="5.0" r="1.0" fill="black" stroke="none" />

<circle cx="95.0" cy="15.0" r="1.0" fill="black" stroke="none" />

<circle cx="95.0" cy="25.0" r="1.0" fill="black" stroke="none" />

<circle cx="95.0" cy="35.0" r="1.0" fill="black" stroke="none" />

<circle cx="95.0" cy="45.0" r="1.0" fill="black" stroke="none" />

<circle cx="95.0" cy="55.0" r="1.0" fill="black" stroke="none" />

<circle cx="95.0" cy="65.0" r="1.0" fill="black" stroke="none" />

<circle cx="95.0" cy="75.0" r="1.0" fill="black" stroke="none" />

<circle cx="95.0" cy="85.0" r="1.0" fill="black" stroke="none" />

<circle cx="105.0" cy="5.0" r="1.0" fill="black" stroke="none" />

<circle cx="105.0" cy="15.0" r="1.0" fill="black" stroke="none" />

<circle cx="105.0" cy="25.0" r="1.0" fill="black" stroke="none" />

<circle cx="105.0" cy="35.0" r="1.0" fill="black" stroke="none" />

<circle cx="105.0" cy="45.0" r="1.0" fill="black" stroke="none" />

<circle cx="105.0" cy="55.0" r="1.0" fill="black" stroke="none" />

<circle cx="105.0" cy="65.0" r="1.0" fill="black" stroke="none" />

<circle cx="105.0" cy="75.0" r="1.0" fill="black" stroke="none" />

<circle cx="105.0" cy="85.0" r="1.0" fill="black" stroke="none" />

<circle cx="115.0" cy="5.0" r="1.0" fill="black" stroke="none" />

<circle cx="115.0" cy="15.0" r="1.0" fill="black" stroke="none" />

<circle cx="115.0" cy="25.0" r="1.0" fill="black" stroke="none" />

<circle cx="115.0" cy="35.0" r="1.0" fill="black" stroke="none" />

<circle cx="115.0" cy="45.0" r="1.0" fill="black" stroke="none" />

<circle cx="115.0" cy="55.0" r="1.0" fill="black" stroke="none" />

<circle cx="115.0" cy="65.0" r="1.0" fill="black" stroke="none" />

<circle cx="115.0" cy="75.0" r="1.0" fill="black" stroke="none" />

<circle cx="115.0" cy="85.0" r="1.0" fill="black" stroke="none" />

</g>

</svg>

