<?xml version="1.0" encoding="utf-8" standalone="no"?>
<!DOCTYPE svg PUBLIC "-//W3C//DTD SVG 1.1//EN" "http://www.w3.org/Graphics/SVG/1.1/DTD/svg11.dtd">

<svg width="210mm" height="297mm" viewBox="0 0 210 297" xmlns="http://www.w3.org/2000/svg" xmlns:xlink="http://www.w3.org/1999/xlink" version="1.1" style="stroke:black; fill:none; stroke-width:0.5pt; stroke-linejoin:round; text-anchor:middle" font-family="Helvetica, Arial, FreeSans, Sans, sans, sans-serif">

<g>

<circle cx="-25.0" cy="58.5" r="4.0" fill="black" stroke="none" />

<circle cx="-5.0" cy="78.5" r="4.0" fill="black" stroke="none" />

<circle cx="-25.0" cy="98.5" r="4.0" fill="black" stroke="none" />

<circle cx="-5.0" cy="118.5" r="4.0" fill="black" stroke="none" />

<circle cx="-25.0" cy="138.5" r="4.0" fill="black" stroke="none" />

<circle cx="-5.0" cy="158.5" r="4.0" fill="black" stroke="none" />

<circle cx="-25.0" cy="178.5" r="4.0" fill="black" stroke="none" />

<circle cx="-5.0" cy="198.5" r="4.0" fill="black" stroke="none" />

<circle cx="-25.0" cy="218.5" r="4.0" fill="black" stroke="none" />

<circle cx="-5.0" cy="238.5" r="4.0" fill="black" stroke="none" />

<circle cx="15.0" cy="58.5" r="4.0" fill="black" stroke="none" />

<circle cx="35.0" cy="78.5" r="4.0" fill="black" stroke="none" />

<circle cx="15.0" cy="98.5" r="4.0" fill="black" stroke="none" />

<circle cx="35.0" cy="118.5" r="4.0" fill="black" stroke="none" />

<circle cx="15.0" cy="138.5" r="4.0" fill="black" stroke="none" />

<circle cx="35.0" cy="158.5" r="4.0" fill="black" stroke="none" />

<circle cx="15.0" cy="178.5" r="4.0" fill="black" stroke="none" />

<circle cx="35.0" cy="198.5" r="4.0" fill="black" stroke="none" />

<circle cx="15.0" cy="218.5" r="4.0" fill="black" stroke="none" />

<circle cx="35.0" cy="238.5" r="4.0" fill="black" stroke="none" />

<circle cx="55.0" cy="58.5" r="4.0" fill="black" stroke="none" />

<circle cx="75.0" cy="78.5" r="4.0" fill="black" stroke="none" />

<circle cx="55.0" cy="98.5" r="4.0" fill="black" stroke="none" />

<circle cx="75.0" cy="118.5" r="4.0" fill="black" stroke="none" />

<circle cx="55.0" cy="138.5" r="4.0" fill="black" stroke="none" />

<circle cx="75.0" cy="158.5" r="4.0" fill="black" stroke="none" />

<circle cx="55.0" cy="178.5" r="4.0" fill="black" stroke="none" />

<circle cx="75.0" cy="198.5" r="4.0" fill="black" stroke="none" />

<circle cx="55.0" cy="218.5" r="4.0" fill="black" stroke="none" />

<circle cx="75.0" cy="238.5" r="4.0" fill="black" stroke="none" />

<circle cx="95.0" cy="58.5" r="4.0" fill="black" stroke="none" />

<circle cx="115.0" cy="78.5" r="4.0" fill="black" stroke="none" />

<circle cx="95.0" cy="98.5" r="4.0" fill="black" stroke="none" />

<circle cx="115.0" cy="118.5" r="4.0" fill="black" stroke="none" />

<circle cx="95.0" cy="138.5" r="4.0" fill="black" stroke="none" />

<circle cx="115.0" cy="158.5" r="4.0" fill="black" stroke="none" />

<circle cx="95.0" cy="178.5" r="4.0" fill="black" stroke="none" />

<circle cx="115.0" cy="198.5" r="4.0" fill="black" stroke="none" />

<circle cx="95.0" cy="218.5" r="4.0" fill="black" stroke="none" />

<circle cx="115.0" cy="238.5" r="4.0" fill="black" stroke="none" />

<circle cx="135.0" cy="58.5" r="4.0" fill="black" stroke="none" />

<circle cx="155.0" cy="78.5" r="4.0" fill="black" stroke="none" />

<circle cx="135.0" cy="98.5" r="4.0" fill="black" stroke="none" />

<circle cx="155.0" cy="118.5" r="4.0" fill="black" stroke="none" />

<circle cx="135.0" cy="138.5" r="4.0" fill="black" stroke="none" />

<circle cx="155.0" cy="158.5" r="4.0" fill="black" stroke="none" />

<circle cx="135.0" cy="178.5" r="4.0" fill="black" stroke="none" />

<circle cx="155.0" cy="198.5" r="4.0" fill="black" stroke="none" />

<circle cx="135.0" cy="218.5" r="4.0" fill="black" stroke="none" />

<circle cx="155.0" cy="238.5" r="4.0" fill="black" stroke="none" />

<circle cx="175.0" cy="58.5" r="4.0" fill="black" stroke="none" />

<circle cx="195.0" cy="78.5" r="4.0" fill="black" stroke="none" />

<circle cx="175.0" cy="98.5" r="4.0" fill="black" stroke="none" />

<circle cx="195.0" cy="118.5" r="4.0" fill="black" stroke="none" />

<circle cx="175.0" cy="138.5" r="4.0" fill="black" stroke="none" />

<circle cx="195.0" cy="158.5" r="4.0" fill="black" stroke="none" />

<circle cx="175.0" cy="178.5" r="4.0" fill="black" stroke="none" />

<circle cx="195.0" cy="198.5" r="4.0" fill="black" stroke="none" />

<circle cx="175.0" cy="218.5" r="4.0" fill="black" stroke="none" />

<circle cx="195.0" cy="238.5" r="4.0" fill="black" stroke="none" />

<circle cx="215.0" cy="58.5" r="4.0" fill="black" stroke="none" />

<circle cx="235.0" cy="78.5" r="4.0" fill="black" stroke="none" />

<circle cx="215.0" cy="98.5" r="4.0" fill="black" stroke="none" />

<circle cx="235.0" cy="118.5" r="4.0" fill="black" stroke="none" />

<circle cx="215.0" cy="138.5" r="4.0" fill="black" stroke="none" />

<circle cx="235.0" cy="158.5" r="4.0" fill="black" stroke="none" />

<circle cx="215.0" cy="178.5" r="4.0" fill="black" stroke="none" />

<circle cx="235.0" cy="198.5" r="4.0" fill="black" stroke="none" />

<circle cx="215.0" cy="218.5" r="4.0" fill="black" stroke="none" />

<circle cx="235.0" cy="238.5" r="4.0" fill="black" stroke="none" />

</g>

</svg>

