<?xml version="1.0" encoding="utf-8" standalone="no"?>
<!DOCTYPE svg PUBLIC "-//W3C//DTD SVG 1.1//EN" "http://www.w3.org/Graphics/SVG/1.1/DTD/svg11.dtd">

<svg width="275mm" height="175mm" viewBox="0 0 275 175" xmlns="http://www.w3.org/2000/svg" xmlns:xlink="http://www.w3.org/1999/xlink" version="1.1" style="stroke:black; fill:none; stroke-width:0.5pt; stroke-linejoin:round; text-anchor:middle" font-family="Helvetica, Arial, FreeSans, Sans, sans, sans-serif">

<g>

<rect x="0.0" y="0.0" width="25.0" height="25.0" fill="black" stroke="none" />

<rect x="0.0" y="50.0" width="25.0" height="25.0" fill="black" stroke="none" />

<rect x="0.0" y="100.0" width="25.0" height="25.0" fill="black" stroke="none" />

<rect x="0.0" y="150.0" width="25.0" height="25.0" fill="black" stroke="none" />

<rect x="25.0" y="25.0" width="25.0" height="25.0" fill="black" stroke="none" />

<rect x="25.0" y="75.0" width="25.0" height="25.0" fill="black" stroke="none" />

<rect x="25.0" y="125.0" width="25.0" height="25.0" fill="black" stroke="none" />

<rect x="50.0" y="0.0" width="25.0" height="25.0" fill="black" stroke="none" />

<rect x="50.0" y="50.0" width="25.0" height="25.0" fill="black" stroke="none" />

<rect x="50.0" y="100.0" width="25.0" height="25.0" fill="black" stroke="none" />

<rect x="50.0" y="150.0" width="25.0" height="25.0" fill="black" stroke="none" />

<rect x="75.0" y="25.0" width="25.0" height="25.0" fill="black" stroke="none" />

<rect x="75.0" y="75.0" width="25.0" height="25.0" fill="black" stroke="none" />

<rect x="75.0" y="125.0" width="25.0" height="25.0" fill="black" stroke="none" />

<rect x="100.0" y="0.0" width="25.0" height="25.0" fill="black" stroke="none" />

<rect x="100.0" y="50.0" width="25.0" height="25.0" fill="black" stroke="none" />

<rect x="100.0" y="100.0" width="25.0" height="25.0" fill="black" stroke="none" />

<rect x="100.0" y="150.0" width="25.0" height="25.0" fill="black" stroke="none" />

<rect x="125.0" y="25.0" width="25.0" height="25.0" fill="black" stroke="none" />

<rect x="125.0" y="75.0" width="25.0" height="25.0" fill="black" stroke="none" />

<rect x="125.0" y="125.0" width="25.0" height="25.0" fill="black" stroke="none" />

<rect x="150.0" y="0.0" width="25.0" height="25.0" fill="black" stroke="none" />

<rect x="150.0" y="50.0" width="25.0" height="25.0" fill="black" stroke="none" />

<rect x="150.0" y="100.0" width="25.0" height="25.0" fill="black" stroke="none" />

<rect x="150.0" y="150.0" width="25.0" height="25.0" fill="black" stroke="none" />

<rect x="175.0" y="25.0" width="25.0" height="25.0" fill="black" stroke="none" />

<rect x="175.0" y="75.0" width="25.0" height="25.0" fill="black" stroke="none" />

<rect x="175.0" y="125.0" width="25.0" height="25.0" fill="black" stroke="none" />

<rect x="200.0" y="0.0" width="25.0" height="25.0" fill="black" stroke="none" />

<rect x="200.0" y="50.0" width="25.0" height="25.0" fill="black" stroke="none" />

<rect x="200.0" y="100.0" width="25.0" height="25.0" fill="black" stroke="none" />

<rect x="200.0" y="150.0" width="25.0" height="25.0" fill="black" stroke="none" />

<rect x="225.0" y="25.0" width="25.0" height="25.0" fill="black" stroke="none" />

<rect x="225.0" y="75.0" width="25.0" height="25.0" fill="black" stroke="none" />

<rect x="225.0" y="125.0" width="25.0" height="25.0" fill="black" stroke="none" />

<rect x="250.0" y="0.0" width="25.0" height="25.0" fill="black" stroke="none" />

<rect x="250.0" y="50.0" width="25.0" height="25.0" fill="black" stroke="none" />

<rect x="250.0" y="100.0" width="25.0" height="25.0" fill="black" stroke="none" />

<rect x="250.0" y="150.0" width="25.0" height="25.0" fill="black" stroke="none" />

</g>

</svg>

