<?xml version="1.0" encoding="utf-8" standalone="no"?>
<!DOCTYPE svg PUBLIC "-//W3C//DTD SVG 1.1//EN" "http://www.w3.org/Graphics/SVG/1.1/DTD/svg11.dtd">

<svg width="275mm" height="525mm" viewBox="0 0 275 525" xmlns="http://www.w3.org/2000/svg" xmlns:xlink="http://www.w3.org/1999/xlink" version="1.1" style="stroke:black; fill:none; stroke-width:0.5pt; stroke-linejoin:round; text-anchor:middle" font-family="Helvetica, Arial, FreeSans, Sans, sans, sans-serif">

<g>

<circle cx="-125.0" cy="12.5" r="5.0" fill="black" stroke="none" />

<circle cx="-100.0" cy="37.5" r="5.0" fill="black" stroke="none" />

<circle cx="-125.0" cy="62.5" r="5.0" fill="black" stroke="none" />

<circle cx="-100.0" cy="87.5" r="5.0" fill="black" stroke="none" />

<circle cx="-125.0" cy="112.5" r="5.0" fill="black" stroke="none" />

<circle cx="-100.0" cy="137.5" r="5.0" fill="black" stroke="none" />

<circle cx="-125.0" cy="162.5" r="5.0" fill="black" stroke="none" />

<circle cx="-100.0" cy="187.5" r="5.0" fill="black" stroke="none" />

<circle cx="-125.0" cy="212.5" r="5.0" fill="black" stroke="none" />

<circle cx="-100.0" cy="237.5" r="5.0" fill="black" stroke="none" />

<circle cx="-125.0" cy="262.5" r="5.0" fill="black" stroke="none" />

<circle cx="-100.0" cy="287.5" r="5.0" fill="black" stroke="none" />

<circle cx="-125.0" cy="312.5" r="5.0" fill="black" stroke="none" />

<circle cx="-100.0" cy="337.5" r="5.0" fill="black" stroke="none" />

<circle cx="-125.0" cy="362.5" r="5.0" fill="black" stroke="none" />

<circle cx="-100.0" cy="387.5" r="5.0" fill="black" stroke="none" />

<circle cx="-125.0" cy="412.5" r="5.0" fill="black" stroke="none" />

<circle cx="-100.0" cy="437.5" r="5.0" fill="black" stroke="none" />

<circle cx="-125.0" cy="462.5" r="5.0" fill="black" stroke="none" />

<circle cx="-100.0" cy="487.5" r="5.0" fill="black" stroke="none" />

<circle cx="-125.0" cy="512.5" r="5.0" fill="black" stroke="none" />

<circle cx="-75.0" cy="12.5" r="5.0" fill="black" stroke="none" />

<circle cx="-50.0" cy="37.5" r="5.0" fill="black" stroke="none" />

<circle cx="-75.0" cy="62.5" r="5.0" fill="black" stroke="none" />

<circle cx="-50.0" cy="87.5" r="5.0" fill="black" stroke="none" />

<circle cx="-75.0" cy="112.5" r="5.0" fill="black" stroke="none" />

<circle cx="-50.0" cy="137.5" r="5.0" fill="black" stroke="none" />

<circle cx="-75.0" cy="162.5" r="5.0" fill="black" stroke="none" />

<circle cx="-50.0" cy="187.5" r="5.0" fill="black" stroke="none" />

<circle cx="-75.0" cy="212.5" r="5.0" fill="black" stroke="none" />

<circle cx="-50.0" cy="237.5" r="5.0" fill="black" stroke="none" />

<circle cx="-75.0" cy="262.5" r="5.0" fill="black" stroke="none" />

<circle cx="-50.0" cy="287.5" r="5.0" fill="black" stroke="none" />

<circle cx="-75.0" cy="312.5" r="5.0" fill="black" stroke="none" />

<circle cx="-50.0" cy="337.5" r="5.0" fill="black" stroke="none" />

<circle cx="-75.0" cy="362.5" r="5.0" fill="black" stroke="none" />

<circle cx="-50.0" cy="387.5" r="5.0" fill="black" stroke="none" />

<circle cx="-75.0" cy="412.5" r="5.0" fill="black" stroke="none" />

<circle cx="-50.0" cy="437.5" r="5.0" fill="black" stroke="none" />

<circle cx="-75.0" cy="462.5" r="5.0" fill="black" stroke="none" />

<circle cx="-50.0" cy="487.5" r="5.0" fill="black" stroke="none" />

<circle cx="-75.0" cy="512.5" r="5.0" fill="black" stroke="none" />

<circle cx="-25.0" cy="12.5" r="5.0" fill="black" stroke="none" />

<circle cx="0.0" cy="37.5" r="5.0" fill="black" stroke="none" />

<circle cx="-25.0" cy="62.5" r="5.0" fill="black" stroke="none" />

<circle cx="0.0" cy="87.5" r="5.0" fill="black" stroke="none" />

<circle cx="-25.0" cy="112.5" r="5.0" fill="black" stroke="none" />

<circle cx="0.0" cy="137.5" r="5.0" fill="black" stroke="none" />

<circle cx="-25.0" cy="162.5" r="5.0" fill="black" stroke="none" />

<circle cx="0.0" cy="187.5" r="5.0" fill="black" stroke="none" />

<circle cx="-25.0" cy="212.5" r="5.0" fill="black" stroke="none" />

<circle cx="0.0" cy="237.5" r="5.0" fill="black" stroke="none" />

<circle cx="-25.0" cy="262.5" r="5.0" fill="black" stroke="none" />

<circle cx="0.0" cy="287.5" r="5.0" fill="black" stroke="none" />

<circle cx="-25.0" cy="312.5" r="5.0" fill="black" stroke="none" />

<circle cx="0.0" cy="337.5" r="5.0" fill="black" stroke="none" />

<circle cx="-25.0" cy="362.5" r="5.0" fill="black" stroke="none" />

<circle cx="0.0" cy="387.5" r="5.0" fill="black" stroke="none" />

<circle cx="-25.0" cy="412.5" r="5.0" fill="black" stroke="none" />

<circle cx="0.0" cy="437.5" r="5.0" fill="black" stroke="none" />

<circle cx="-25.0" cy="462.5" r="5.0" fill="black" stroke="none" />

<circle cx="0.0" cy="487.5" r="5.0" fill="black" stroke="none" />

<circle cx="-25.0" cy="512.5" r="5.0" fill="black" stroke="none" />

<circle cx="25.0" cy="12.5" r="5.0" fill="black" stroke="none" />

<circle cx="50.0" cy="37.5" r="5.0" fill="black" stroke="none" />

<circle cx="25.0" cy="62.5" r="5.0" fill="black" stroke="none" />

<circle cx="50.0" cy="87.5" r="5.0" fill="black" stroke="none" />

<circle cx="25.0" cy="112.5" r="5.0" fill="black" stroke="none" />

<circle cx="50.0" cy="137.5" r="5.0" fill="black" stroke="none" />

<circle cx="25.0" cy="162.5" r="5.0" fill="black" stroke="none" />

<circle cx="50.0" cy="187.5" r="5.0" fill="black" stroke="none" />

<circle cx="25.0" cy="212.5" r="5.0" fill="black" stroke="none" />

<circle cx="50.0" cy="237.5" r="5.0" fill="black" stroke="none" />

<circle cx="25.0" cy="262.5" r="5.0" fill="black" stroke="none" />

<circle cx="50.0" cy="287.5" r="5.0" fill="black" stroke="none" />

<circle cx="25.0" cy="312.5" r="5.0" fill="black" stroke="none" />

<circle cx="50.0" cy="337.5" r="5.0" fill="black" stroke="none" />

<circle cx="25.0" cy="362.5" r="5.0" fill="black" stroke="none" />

<circle cx="50.0" cy="387.5" r="5.0" fill="black" stroke="none" />

<circle cx="25.0" cy="412.5" r="5.0" fill="black" stroke="none" />

<circle cx="50.0" cy="437.5" r="5.0" fill="black" stroke="none" />

<circle cx="25.0" cy="462.5" r="5.0" fill="black" stroke="none" />

<circle cx="50.0" cy="487.5" r="5.0" fill="black" stroke="none" />

<circle cx="25.0" cy="512.5" r="5.0" fill="black" stroke="none" />

<circle cx="75.0" cy="12.5" r="5.0" fill="black" stroke="none" />

<circle cx="100.0" cy="37.5" r="5.0" fill="black" stroke="none" />

<circle cx="75.0" cy="62.5" r="5.0" fill="black" stroke="none" />

<circle cx="100.0" cy="87.5" r="5.0" fill="black" stroke="none" />

<circle cx="75.0" cy="112.5" r="5.0" fill="black" stroke="none" />

<circle cx="100.0" cy="137.5" r="5.0" fill="black" stroke="none" />

<circle cx="75.0" cy="162.5" r="5.0" fill="black" stroke="none" />

<circle cx="100.0" cy="187.5" r="5.0" fill="black" stroke="none" />

<circle cx="75.0" cy="212.5" r="5.0" fill="black" stroke="none" />

<circle cx="100.0" cy="237.5" r="5.0" fill="black" stroke="none" />

<circle cx="75.0" cy="262.5" r="5.0" fill="black" stroke="none" />

<circle cx="100.0" cy="287.5" r="5.0" fill="black" stroke="none" />

<circle cx="75.0" cy="312.5" r="5.0" fill="black" stroke="none" />

<circle cx="100.0" cy="337.5" r="5.0" fill="black" stroke="none" />

<circle cx="75.0" cy="362.5" r="5.0" fill="black" stroke="none" />

<circle cx="100.0" cy="387.5" r="5.0" fill="black" stroke="none" />

<circle cx="75.0" cy="412.5" r="5.0" fill="black" stroke="none" />

<circle cx="100.0" cy="437.5" r="5.0" fill="black" stroke="none" />

<circle cx="75.0" cy="462.5" r="5.0" fill="black" stroke="none" />

<circle cx="100.0" cy="487.5" r="5.0" fill="black" stroke="none" />

<circle cx="75.0" cy="512.5" r="5.0" fill="black" stroke="none" />

<circle cx="125.0" cy="12.5" r="5.0" fill="black" stroke="none" />

<circle cx="150.0" cy="37.5" r="5.0" fill="black" stroke="none" />

<circle cx="125.0" cy="62.5" r="5.0" fill="black" stroke="none" />

<circle cx="150.0" cy="87.5" r="5.0" fill="black" stroke="none" />

<circle cx="125.0" cy="112.5" r="5.0" fill="black" stroke="none" />

<circle cx="150.0" cy="137.5" r="5.0" fill="black" stroke="none" />

<circle cx="125.0" cy="162.5" r="5.0" fill="black" stroke="none" />

<circle cx="150.0" cy="187.5" r="5.0" fill="black" stroke="none" />

<circle cx="125.0" cy="212.5" r="5.0" fill="black" stroke="none" />

<circle cx="150.0" cy="237.5" r="5.0" fill="black" stroke="none" />

<circle cx="125.0" cy="262.5" r="5.0" fill="black" stroke="none" />

<circle cx="150.0" cy="287.5" r="5.0" fill="black" stroke="none" />

<circle cx="125.0" cy="312.5" r="5.0" fill="black" stroke="none" />

<circle cx="150.0" cy="337.5" r="5.0" fill="black" stroke="none" />

<circle cx="125.0" cy="362.5" r="5.0" fill="black" stroke="none" />

<circle cx="150.0" cy="387.5" r="5.0" fill="black" stroke="none" />

<circle cx="125.0" cy="412.5" r="5.0" fill="black" stroke="none" />

<circle cx="150.0" cy="437.5" r="5.0" fill="black" stroke="none" />

<circle cx="125.0" cy="462.5" r="5.0" fill="black" stroke="none" />

<circle cx="150.0" cy="487.5" r="5.0" fill="black" stroke="none" />

<circle cx="125.0" cy="512.5" r="5.0" fill="black" stroke="none" />

<circle cx="175.0" cy="12.5" r="5.0" fill="black" stroke="none" />

<circle cx="200.0" cy="37.5" r="5.0" fill="black" stroke="none" />

<circle cx="175.0" cy="62.5" r="5.0" fill="black" stroke="none" />

<circle cx="200.0" cy="87.5" r="5.0" fill="black" stroke="none" />

<circle cx="175.0" cy="112.5" r="5.0" fill="black" stroke="none" />

<circle cx="200.0" cy="137.5" r="5.0" fill="black" stroke="none" />

<circle cx="175.0" cy="162.5" r="5.0" fill="black" stroke="none" />

<circle cx="200.0" cy="187.5" r="5.0" fill="black" stroke="none" />

<circle cx="175.0" cy="212.5" r="5.0" fill="black" stroke="none" />

<circle cx="200.0" cy="237.5" r="5.0" fill="black" stroke="none" />

<circle cx="175.0" cy="262.5" r="5.0" fill="black" stroke="none" />

<circle cx="200.0" cy="287.5" r="5.0" fill="black" stroke="none" />

<circle cx="175.0" cy="312.5" r="5.0" fill="black" stroke="none" />

<circle cx="200.0" cy="337.5" r="5.0" fill="black" stroke="none" />

<circle cx="175.0" cy="362.5" r="5.0" fill="black" stroke="none" />

<circle cx="200.0" cy="387.5" r="5.0" fill="black" stroke="none" />

<circle cx="175.0" cy="412.5" r="5.0" fill="black" stroke="none" />

<circle cx="200.0" cy="437.5" r="5.0" fill="black" stroke="none" />

<circle cx="175.0" cy="462.5" r="5.0" fill="black" stroke="none" />

<circle cx="200.0" cy="487.5" r="5.0" fill="black" stroke="none" />

<circle cx="175.0" cy="512.5" r="5.0" fill="black" stroke="none" />

<circle cx="225.0" cy="12.5" r="5.0" fill="black" stroke="none" />

<circle cx="250.0" cy="37.5" r="5.0" fill="black" stroke="none" />

<circle cx="225.0" cy="62.5" r="5.0" fill="black" stroke="none" />

<circle cx="250.0" cy="87.5" r="5.0" fill="black" stroke="none" />

<circle cx="225.0" cy="112.5" r="5.0" fill="black" stroke="none" />

<circle cx="250.0" cy="137.5" r="5.0" fill="black" stroke="none" />

<circle cx="225.0" cy="162.5" r="5.0" fill="black" stroke="none" />

<circle cx="250.0" cy="187.5" r="5.0" fill="black" stroke="none" />

<circle cx="225.0" cy="212.5" r="5.0" fill="black" stroke="none" />

<circle cx="250.0" cy="237.5" r="5.0" fill="black" stroke="none" />

<circle cx="225.0" cy="262.5" r="5.0" fill="black" stroke="none" />

<circle cx="250.0" cy="287.5" r="5.0" fill="black" stroke="none" />

<circle cx="225.0" cy="312.5" r="5.0" fill="black" stroke="none" />

<circle cx="250.0" cy="337.5" r="5.0" fill="black" stroke="none" />

<circle cx="225.0" cy="362.5" r="5.0" fill="black" stroke="none" />

<circle cx="250.0" cy="387.5" r="5.0" fill="black" stroke="none" />

<circle cx="225.0" cy="412.5" r="5.0" fill="black" stroke="none" />

<circle cx="250.0" cy="437.5" r="5.0" fill="black" stroke="none" />

<circle cx="225.0" cy="462.5" r="5.0" fill="black" stroke="none" />

<circle cx="250.0" cy="487.5" r="5.0" fill="black" stroke="none" />

<circle cx="225.0" cy="512.5" r="5.0" fill="black" stroke="none" />

<circle cx="275.0" cy="12.5" r="5.0" fill="black" stroke="none" />

<circle cx="300.0" cy="37.5" r="5.0" fill="black" stroke="none" />

<circle cx="275.0" cy="62.5" r="5.0" fill="black" stroke="none" />

<circle cx="300.0" cy="87.5" r="5.0" fill="black" stroke="none" />

<circle cx="275.0" cy="112.5" r="5.0" fill="black" stroke="none" />

<circle cx="300.0" cy="137.5" r="5.0" fill="black" stroke="none" />

<circle cx="275.0" cy="162.5" r="5.0" fill="black" stroke="none" />

<circle cx="300.0" cy="187.5" r="5.0" fill="black" stroke="none" />

<circle cx="275.0" cy="212.5" r="5.0" fill="black" stroke="none" />

<circle cx="300.0" cy="237.5" r="5.0" fill="black" stroke="none" />

<circle cx="275.0" cy="262.5" r="5.0" fill="black" stroke="none" />

<circle cx="300.0" cy="287.5" r="5.0" fill="black" stroke="none" />

<circle cx="275.0" cy="312.5" r="5.0" fill="black" stroke="none" />

<circle cx="300.0" cy="337.5" r="5.0" fill="black" stroke="none" />

<circle cx="275.0" cy="362.5" r="5.0" fill="black" stroke="none" />

<circle cx="300.0" cy="387.5" r="5.0" fill="black" stroke="none" />

<circle cx="275.0" cy="412.5" r="5.0" fill="black" stroke="none" />

<circle cx="300.0" cy="437.5" r="5.0" fill="black" stroke="none" />

<circle cx="275.0" cy="462.5" r="5.0" fill="black" stroke="none" />

<circle cx="300.0" cy="487.5" r="5.0" fill="black" stroke="none" />

<circle cx="275.0" cy="512.5" r="5.0" fill="black" stroke="none" />

<circle cx="325.0" cy="12.5" r="5.0" fill="black" stroke="none" />

<circle cx="350.0" cy="37.5" r="5.0" fill="black" stroke="none" />

<circle cx="325.0" cy="62.5" r="5.0" fill="black" stroke="none" />

<circle cx="350.0" cy="87.5" r="5.0" fill="black" stroke="none" />

<circle cx="325.0" cy="112.5" r="5.0" fill="black" stroke="none" />

<circle cx="350.0" cy="137.5" r="5.0" fill="black" stroke="none" />

<circle cx="325.0" cy="162.5" r="5.0" fill="black" stroke="none" />

<circle cx="350.0" cy="187.5" r="5.0" fill="black" stroke="none" />

<circle cx="325.0" cy="212.5" r="5.0" fill="black" stroke="none" />

<circle cx="350.0" cy="237.5" r="5.0" fill="black" stroke="none" />

<circle cx="325.0" cy="262.5" r="5.0" fill="black" stroke="none" />

<circle cx="350.0" cy="287.5" r="5.0" fill="black" stroke="none" />

<circle cx="325.0" cy="312.5" r="5.0" fill="black" stroke="none" />

<circle cx="350.0" cy="337.5" r="5.0" fill="black" stroke="none" />

<circle cx="325.0" cy="362.5" r="5.0" fill="black" stroke="none" />

<circle cx="350.0" cy="387.5" r="5.0" fill="black" stroke="none" />

<circle cx="325.0" cy="412.5" r="5.0" fill="black" stroke="none" />

<circle cx="350.0" cy="437.5" r="5.0" fill="black" stroke="none" />

<circle cx="325.0" cy="462.5" r="5.0" fill="black" stroke="none" />

<circle cx="350.0" cy="487.5" r="5.0" fill="black" stroke="none" />

<circle cx="325.0" cy="512.5" r="5.0" fill="black" stroke="none" />

<circle cx="375.0" cy="12.5" r="5.0" fill="black" stroke="none" />

<circle cx="400.0" cy="37.5" r="5.0" fill="black" stroke="none" />

<circle cx="375.0" cy="62.5" r="5.0" fill="black" stroke="none" />

<circle cx="400.0" cy="87.5" r="5.0" fill="black" stroke="none" />

<circle cx="375.0" cy="112.5" r="5.0" fill="black" stroke="none" />

<circle cx="400.0" cy="137.5" r="5.0" fill="black" stroke="none" />

<circle cx="375.0" cy="162.5" r="5.0" fill="black" stroke="none" />

<circle cx="400.0" cy="187.5" r="5.0" fill="black" stroke="none" />

<circle cx="375.0" cy="212.5" r="5.0" fill="black" stroke="none" />

<circle cx="400.0" cy="237.5" r="5.0" fill="black" stroke="none" />

<circle cx="375.0" cy="262.5" r="5.0" fill="black" stroke="none" />

<circle cx="400.0" cy="287.5" r="5.0" fill="black" stroke="none" />

<circle cx="375.0" cy="312.5" r="5.0" fill="black" stroke="none" />

<circle cx="400.0" cy="337.5" r="5.0" fill="black" stroke="none" />

<circle cx="375.0" cy="362.5" r="5.0" fill="black" stroke="none" />

<circle cx="400.0" cy="387.5" r="5.0" fill="black" stroke="none" />

<circle cx="375.0" cy="412.5" r="5.0" fill="black" stroke="none" />

<circle cx="400.0" cy="437.5" r="5.0" fill="black" stroke="none" />

<circle cx="375.0" cy="462.5" r="5.0" fill="black" stroke="none" />

<circle cx="400.0" cy="487.5" r="5.0" fill="black" stroke="none" />

<circle cx="375.0" cy="512.5" r="5.0" fill="black" stroke="none" />

</g>

</svg>

